<?xml version="1.0" standalone="no"?>
<!DOCTYPE svg PUBLIC "-//W3C//DTD SVG 20010904//EN"
 "http://www.w3.org/TR/2001/REC-SVG-20010904/DTD/svg10.dtd">
<svg version="1.0" xmlns="http://www.w3.org/2000/svg"
 width="512.000000pt" height="512.000000pt" viewBox="0 0 512.000000 512.000000"
 preserveAspectRatio="xMidYMid meet">
<metadata>
Created by potrace 1.11, written by Peter Selinger 2001-2013
</metadata>
<g transform="translate(0.000000,512.000000) scale(0.100000,-0.100000)"
fill="#000000" stroke="none">
<path d="M0 2560 l0 -2560 2560 0 2560 0 0 2560 0 2560 -2560 0 -2560 0 0
-2560z m1520 1102 l0 -58 -88 -12 c-179 -24 -232 -54 -251 -143 -14 -63 -15
-1696 -1 -1753 20 -88 79 -126 238 -153 l102 -18 0 -57 0 -58 -520 0 -520 0 0
60 c0 45 4 60 14 60 8 0 60 5 116 11 113 11 166 32 196 76 18 27 19 62 22 913
2 589 0 897 -7 921 -6 19 -21 45 -35 58 -28 27 -134 64 -233 81 l-73 13 0 59
0 58 520 0 520 0 0 -58z m1337 -792 c177 -465 326 -853 330 -863 6 -14 84 176
290 705 319 817 318 814 342 923 l18 80 376 3 377 2 0 -58 0 -57 -102 -18
c-129 -22 -167 -40 -193 -92 -20 -39 -20 -60 -20 -930 0 -830 1 -892 18 -922
30 -55 109 -90 250 -109 l47 -6 0 -59 0 -59 -510 0 -510 0 0 59 0 59 78 6
c167 15 236 46 268 122 19 46 21 1768 2 1762 -7 -3 -70 -148 -140 -324 -70
-175 -248 -617 -394 -982 l-267 -663 -40 3 -40 3 -62 165 c-34 91 -202 542
-375 1003 -172 460 -317 837 -322 837 -5 0 -7 -331 -6 -817 3 -743 5 -823 21
-878 37 -127 95 -172 274 -215 l93 -23 0 -58 0 -59 -465 0 -465 0 0 59 0 58
78 13 c156 25 220 60 258 144 41 90 45 189 42 961 l-3 720 -24 52 c-43 96
-128 152 -262 175 l-69 11 0 59 0 58 392 -2 392 -3 323 -845z"/>
</g>
</svg>
